<?xml version="1.0" encoding="utf-8"?>
<!-- Generator: Adobe Illustrator 16.0.3, SVG Export Plug-In . SVG Version: 6.00 Build 0)  -->
<!DOCTYPE svg PUBLIC "-//W3C//DTD SVG 1.1//EN" "http://www.w3.org/Graphics/SVG/1.1/DTD/svg11.dtd">
<svg version="1.1" id="Layer_1" xmlns="http://www.w3.org/2000/svg" xmlns:xlink="http://www.w3.org/1999/xlink" x="0px" y="0px"
	 width="523px" height="319px" viewBox="44.5 178.5 523 319" enable-background="new 44.5 178.5 523 319" xml:space="preserve">
<path fill="#FFFFFF" d="M521.225,194.074H91.751c-20.498,0-36.115,16.593-36.115,36.115v220.593
	c0,20.498,16.593,36.115,36.115,36.115h130.794c10.737,0,20.498-5.856,24.402-15.617l29.282-73.206
	c11.713-25.378,47.828-24.402,58.564,0.976l25.378,71.254c3.904,9.761,13.665,16.594,24.402,16.594h135.675
	c20.497,0,36.114-16.594,36.114-36.115V231.165C558.315,210.667,541.723,194.074,521.225,194.074z M199.12,403.931
	c-31.234,0-55.636-25.378-55.636-55.636s25.378-55.637,55.636-55.637s55.636,25.378,55.636,55.637S230.354,403.931,199.12,403.931z
	 M413.856,403.931c-31.234,0-55.637-25.378-55.637-55.636s25.378-55.637,55.637-55.637s55.637,25.378,55.637,55.637
	S445.091,403.931,413.856,403.931z"/>
</svg>
