<?xml version="1.0" encoding="utf-8"?>
<!-- Generator: Adobe Illustrator 16.0.3, SVG Export Plug-In . SVG Version: 6.00 Build 0)  -->
<!DOCTYPE svg PUBLIC "-//W3C//DTD SVG 1.1//EN" "http://www.w3.org/Graphics/SVG/1.1/DTD/svg11.dtd">
<svg version="1.1" id="Layer_1" xmlns="http://www.w3.org/2000/svg" xmlns:xlink="http://www.w3.org/1999/xlink" x="0px" y="0px"
	 width="32px" height="32px" viewBox="0 0 32 32" enable-background="new 0 0 32 32" xml:space="preserve">
<path fill="#FFFFFF" d="M32,0v12l-4.32-4.321l-6.625,6.625l-3.359-3.359L24.32,4.32l-4.321-4.321L32,0z M7.679,4.321l6.625,6.625
	l-3.359,3.359L4.32,7.68l-4.321,4.321v-12h12L7.679,4.321z M27.68,24.32L32,20v12H20l4.32-4.32l-6.625-6.625l3.359-3.359
	L27.68,24.32z M14.304,21.055L7.679,27.68L12,32H0V20l4.321,4.32l6.625-6.625L14.304,21.055z"/>
</svg>
